<mxfile host="app.diagrams.net" agent="Mozilla/5.0 (Windows NT 10.0; Win64; x64) AppleWebKit/537.36 (KHTML, like Gecko) Chrome/134.0.0.0 Safari/537.36 OPR/119.0.0.0" version="28.2.3">
  <diagram name="Página-1" id="3MIklEposQObtRPu--9t">
    <mxGraphModel dx="1008" dy="1126" grid="1" gridSize="10" guides="1" tooltips="1" connect="1" arrows="1" fold="1" page="1" pageScale="1" pageWidth="827" pageHeight="1169" math="0" shadow="0">
      <root>
        <mxCell id="0" />
        <mxCell id="1" parent="0" />
        <mxCell id="gnKVhpXIuqmrQUkEP_gw-18" style="edgeStyle=orthogonalEdgeStyle;rounded=0;orthogonalLoop=1;jettySize=auto;html=1;exitX=0;exitY=1;exitDx=0;exitDy=0;entryX=0.5;entryY=0;entryDx=0;entryDy=0;" edge="1" parent="1" source="gnKVhpXIuqmrQUkEP_gw-7" target="gnKVhpXIuqmrQUkEP_gw-8">
          <mxGeometry relative="1" as="geometry">
            <Array as="points">
              <mxPoint x="200" y="130" />
            </Array>
          </mxGeometry>
        </mxCell>
        <mxCell id="gnKVhpXIuqmrQUkEP_gw-19" style="edgeStyle=orthogonalEdgeStyle;rounded=0;orthogonalLoop=1;jettySize=auto;html=1;exitX=1;exitY=1;exitDx=0;exitDy=0;entryX=0.5;entryY=0;entryDx=0;entryDy=0;" edge="1" parent="1" source="gnKVhpXIuqmrQUkEP_gw-7" target="gnKVhpXIuqmrQUkEP_gw-9">
          <mxGeometry relative="1" as="geometry">
            <Array as="points">
              <mxPoint x="520" y="130" />
            </Array>
          </mxGeometry>
        </mxCell>
        <mxCell id="gnKVhpXIuqmrQUkEP_gw-7" value="MEDIKAMENTA" style="rounded=0;whiteSpace=wrap;html=1;" vertex="1" parent="1">
          <mxGeometry x="310" y="70" width="120" height="60" as="geometry" />
        </mxCell>
        <mxCell id="gnKVhpXIuqmrQUkEP_gw-20" style="edgeStyle=orthogonalEdgeStyle;rounded=0;orthogonalLoop=1;jettySize=auto;html=1;exitX=0.25;exitY=1;exitDx=0;exitDy=0;" edge="1" parent="1" source="gnKVhpXIuqmrQUkEP_gw-8" target="gnKVhpXIuqmrQUkEP_gw-12">
          <mxGeometry relative="1" as="geometry">
            <Array as="points">
              <mxPoint x="170" y="220" />
              <mxPoint x="80" y="220" />
            </Array>
          </mxGeometry>
        </mxCell>
        <mxCell id="gnKVhpXIuqmrQUkEP_gw-8" value="SERVICIOS DE SALUD SONORA" style="rounded=0;whiteSpace=wrap;html=1;" vertex="1" parent="1">
          <mxGeometry x="140" y="150" width="120" height="60" as="geometry" />
        </mxCell>
        <mxCell id="gnKVhpXIuqmrQUkEP_gw-26" style="edgeStyle=orthogonalEdgeStyle;rounded=0;orthogonalLoop=1;jettySize=auto;html=1;exitX=1;exitY=1;exitDx=0;exitDy=0;entryX=0.5;entryY=0;entryDx=0;entryDy=0;" edge="1" parent="1" source="gnKVhpXIuqmrQUkEP_gw-9" target="gnKVhpXIuqmrQUkEP_gw-11">
          <mxGeometry relative="1" as="geometry">
            <Array as="points">
              <mxPoint x="580" y="220" />
              <mxPoint x="640" y="220" />
            </Array>
          </mxGeometry>
        </mxCell>
        <mxCell id="gnKVhpXIuqmrQUkEP_gw-9" value="SERVICIOS DE SALUD DE YUCATAN" style="rounded=0;whiteSpace=wrap;html=1;" vertex="1" parent="1">
          <mxGeometry x="460" y="150" width="120" height="60" as="geometry" />
        </mxCell>
        <mxCell id="gnKVhpXIuqmrQUkEP_gw-25" value="" style="edgeStyle=orthogonalEdgeStyle;rounded=0;orthogonalLoop=1;jettySize=auto;html=1;" edge="1" parent="1" source="gnKVhpXIuqmrQUkEP_gw-10" target="gnKVhpXIuqmrQUkEP_gw-16">
          <mxGeometry relative="1" as="geometry" />
        </mxCell>
        <mxCell id="gnKVhpXIuqmrQUkEP_gw-10" value="ALMACEN YUCATÁN MORELOS" style="rounded=0;whiteSpace=wrap;html=1;" vertex="1" parent="1">
          <mxGeometry x="410" y="240" width="120" height="60" as="geometry" />
        </mxCell>
        <mxCell id="gnKVhpXIuqmrQUkEP_gw-27" value="" style="edgeStyle=orthogonalEdgeStyle;rounded=0;orthogonalLoop=1;jettySize=auto;html=1;" edge="1" parent="1" source="gnKVhpXIuqmrQUkEP_gw-11" target="gnKVhpXIuqmrQUkEP_gw-17">
          <mxGeometry relative="1" as="geometry" />
        </mxCell>
        <mxCell id="gnKVhpXIuqmrQUkEP_gw-11" value="ALMACÉN YUCATÁN AGUASCALIENTES" style="rounded=0;whiteSpace=wrap;html=1;" vertex="1" parent="1">
          <mxGeometry x="580" y="240" width="120" height="60" as="geometry" />
        </mxCell>
        <mxCell id="gnKVhpXIuqmrQUkEP_gw-23" value="" style="edgeStyle=orthogonalEdgeStyle;rounded=0;orthogonalLoop=1;jettySize=auto;html=1;" edge="1" parent="1" source="gnKVhpXIuqmrQUkEP_gw-12" target="gnKVhpXIuqmrQUkEP_gw-14">
          <mxGeometry relative="1" as="geometry" />
        </mxCell>
        <mxCell id="gnKVhpXIuqmrQUkEP_gw-12" value="ALMAÉN SONORA MORELOS" style="rounded=0;whiteSpace=wrap;html=1;" vertex="1" parent="1">
          <mxGeometry x="20" y="240" width="120" height="60" as="geometry" />
        </mxCell>
        <mxCell id="gnKVhpXIuqmrQUkEP_gw-22" value="" style="edgeStyle=orthogonalEdgeStyle;rounded=0;orthogonalLoop=1;jettySize=auto;html=1;" edge="1" parent="1" source="gnKVhpXIuqmrQUkEP_gw-13" target="gnKVhpXIuqmrQUkEP_gw-15">
          <mxGeometry relative="1" as="geometry" />
        </mxCell>
        <mxCell id="gnKVhpXIuqmrQUkEP_gw-13" value="ALMACÉN SONORA AGUASCALIENTES" style="rounded=0;whiteSpace=wrap;html=1;" vertex="1" parent="1">
          <mxGeometry x="180" y="240" width="120" height="60" as="geometry" />
        </mxCell>
        <mxCell id="gnKVhpXIuqmrQUkEP_gw-14" value="SUB ALMACÉN SONORA MORELOS" style="rounded=0;whiteSpace=wrap;html=1;" vertex="1" parent="1">
          <mxGeometry x="20" y="330" width="120" height="60" as="geometry" />
        </mxCell>
        <mxCell id="gnKVhpXIuqmrQUkEP_gw-15" value="SUB ALMACÉN SONORA AGUASCALIENTES" style="rounded=0;whiteSpace=wrap;html=1;" vertex="1" parent="1">
          <mxGeometry x="180" y="330" width="120" height="60" as="geometry" />
        </mxCell>
        <mxCell id="gnKVhpXIuqmrQUkEP_gw-16" value="SUB ALMACÉN YUCATÁN MORELOS" style="rounded=0;whiteSpace=wrap;html=1;" vertex="1" parent="1">
          <mxGeometry x="410" y="330" width="120" height="60" as="geometry" />
        </mxCell>
        <mxCell id="gnKVhpXIuqmrQUkEP_gw-17" value="SUB ALMACÉN YUCATÁN AGUASCALIENTES" style="rounded=0;whiteSpace=wrap;html=1;" vertex="1" parent="1">
          <mxGeometry x="580" y="330" width="120" height="60" as="geometry" />
        </mxCell>
        <mxCell id="gnKVhpXIuqmrQUkEP_gw-21" style="edgeStyle=orthogonalEdgeStyle;rounded=0;orthogonalLoop=1;jettySize=auto;html=1;exitX=0.75;exitY=1;exitDx=0;exitDy=0;entryX=0.418;entryY=0.01;entryDx=0;entryDy=0;entryPerimeter=0;" edge="1" parent="1" source="gnKVhpXIuqmrQUkEP_gw-8" target="gnKVhpXIuqmrQUkEP_gw-13">
          <mxGeometry relative="1" as="geometry" />
        </mxCell>
        <mxCell id="gnKVhpXIuqmrQUkEP_gw-24" style="edgeStyle=orthogonalEdgeStyle;rounded=0;orthogonalLoop=1;jettySize=auto;html=1;exitX=0.25;exitY=1;exitDx=0;exitDy=0;entryX=0.668;entryY=0.063;entryDx=0;entryDy=0;entryPerimeter=0;" edge="1" parent="1" source="gnKVhpXIuqmrQUkEP_gw-9" target="gnKVhpXIuqmrQUkEP_gw-10">
          <mxGeometry relative="1" as="geometry" />
        </mxCell>
        <mxCell id="gnKVhpXIuqmrQUkEP_gw-28" value="" style="shape=cylinder3;whiteSpace=wrap;html=1;boundedLbl=1;backgroundOutline=1;size=15;" vertex="1" parent="1">
          <mxGeometry x="530" y="440" width="60" height="80" as="geometry" />
        </mxCell>
        <mxCell id="gnKVhpXIuqmrQUkEP_gw-29" value="" style="shape=cylinder3;whiteSpace=wrap;html=1;boundedLbl=1;backgroundOutline=1;size=15;" vertex="1" parent="1">
          <mxGeometry x="120" y="460" width="60" height="80" as="geometry" />
        </mxCell>
        <mxCell id="gnKVhpXIuqmrQUkEP_gw-30" style="edgeStyle=orthogonalEdgeStyle;rounded=0;orthogonalLoop=1;jettySize=auto;html=1;exitX=0.5;exitY=1;exitDx=0;exitDy=0;entryX=1;entryY=0.5;entryDx=0;entryDy=0;entryPerimeter=0;" edge="1" parent="1" source="gnKVhpXIuqmrQUkEP_gw-15" target="gnKVhpXIuqmrQUkEP_gw-29">
          <mxGeometry relative="1" as="geometry" />
        </mxCell>
        <mxCell id="gnKVhpXIuqmrQUkEP_gw-31" style="edgeStyle=orthogonalEdgeStyle;rounded=0;orthogonalLoop=1;jettySize=auto;html=1;exitX=0.5;exitY=1;exitDx=0;exitDy=0;entryX=0;entryY=0.5;entryDx=0;entryDy=0;entryPerimeter=0;" edge="1" parent="1" source="gnKVhpXIuqmrQUkEP_gw-14" target="gnKVhpXIuqmrQUkEP_gw-29">
          <mxGeometry relative="1" as="geometry" />
        </mxCell>
        <mxCell id="gnKVhpXIuqmrQUkEP_gw-32" style="edgeStyle=orthogonalEdgeStyle;rounded=0;orthogonalLoop=1;jettySize=auto;html=1;exitX=0.75;exitY=1;exitDx=0;exitDy=0;entryX=1;entryY=0;entryDx=0;entryDy=52.5;entryPerimeter=0;" edge="1" parent="1" source="gnKVhpXIuqmrQUkEP_gw-17" target="gnKVhpXIuqmrQUkEP_gw-28">
          <mxGeometry relative="1" as="geometry" />
        </mxCell>
        <mxCell id="gnKVhpXIuqmrQUkEP_gw-33" style="edgeStyle=orthogonalEdgeStyle;rounded=0;orthogonalLoop=1;jettySize=auto;html=1;exitX=0.25;exitY=1;exitDx=0;exitDy=0;entryX=0;entryY=0;entryDx=0;entryDy=52.5;entryPerimeter=0;" edge="1" parent="1" source="gnKVhpXIuqmrQUkEP_gw-16" target="gnKVhpXIuqmrQUkEP_gw-28">
          <mxGeometry relative="1" as="geometry" />
        </mxCell>
        <mxCell id="gnKVhpXIuqmrQUkEP_gw-34" value="Inventario" style="text;html=1;align=center;verticalAlign=middle;resizable=0;points=[];autosize=1;strokeColor=none;fillColor=none;" vertex="1" parent="1">
          <mxGeometry x="110" y="548" width="80" height="30" as="geometry" />
        </mxCell>
        <mxCell id="gnKVhpXIuqmrQUkEP_gw-35" value="INVENTARIO" style="text;html=1;align=center;verticalAlign=middle;whiteSpace=wrap;rounded=0;" vertex="1" parent="1">
          <mxGeometry x="530" y="530" width="60" height="30" as="geometry" />
        </mxCell>
      </root>
    </mxGraphModel>
  </diagram>
</mxfile>
